<?xml version="1.0" encoding="utf-8"?>
<!-- Generator: Adobe Illustrator 16.0.0, SVG Export Plug-In . SVG Version: 6.00 Build 0)  -->
<!DOCTYPE svg PUBLIC "-//W3C//DTD SVG 1.1//EN" "http://www.w3.org/Graphics/SVG/1.1/DTD/svg11.dtd">
<svg version="1.1" id="Layer_5" xmlns="http://www.w3.org/2000/svg" xmlns:xlink="http://www.w3.org/1999/xlink" x="0px" y="0px"
	 width="512px" height="512px" viewBox="0 0 512 512" enable-background="new 0 0 512 512" xml:space="preserve">
<g>
	<g>
		<path fill="#ED1B4A" d="M376,254.216V224h-56c0,35.344-28.656,64-64,64s-64-28.656-64-64h-56v30.216l22.416,5.704
			c0.952,2.553,2.016,5.112,3.2,7.648l-11.84,19.92l42.736,42.736l19.92-11.841c2.536,1.177,5.088,2.248,7.648,3.2L225.784,344
			h60.44l5.703-22.416c2.553-0.952,5.112-2.016,7.648-3.2l19.92,11.841l42.736-42.736l-11.841-19.92
			c1.177-2.536,2.248-5.088,3.2-7.648L376,254.216z"/>
	</g>
	<g>
		<g>
			<path fill="#ED1B4A" d="M192,184c-13.232,0-24-10.768-24-24s10.768-24,24-24s24,10.768,24,24S205.232,184,192,184z"/>
		</g>
	</g>
	<g>
		<g>
			<path fill="#ED1B4A" d="M256,184c-13.232,0-24-10.768-24-24s10.768-24,24-24c13.232,0,24,10.768,24,24S269.232,184,256,184z"/>
		</g>
	</g>
	<g>
		<g>
			<path fill="#ED1B4A" d="M320,184c-13.232,0-24-10.768-24-24s10.768-24,24-24s24,10.768,24,24S333.232,184,320,184z"/>
		</g>
	</g>
	<g>
		<path d="M256,296c36.992,0,67.528-28.057,71.528-64H392c35.288,0,64-28.712,64-64c0-32.672-24.608-59.704-56.271-63.536
			C395.855,50.624,350.816,8,296,8c-37.768,0-72.608,20.768-90.84,53.528C195.856,57.856,186.08,56,176,56
			c-44.112,0-80,35.888-80,80v0.664C73.328,140.488,56,160.256,56,184c0,26.472,21.528,48,48,48h80.472
			C188.472,267.943,219.008,296,256,296z M72,184c0-17.496,14.112-31.76,31.552-32l9.856,0.04l-0.984-8.88
			c-0.256-2.344-0.424-4.736-0.424-7.16c0-35.288,28.712-64,64-64c10.2,0,20.016,2.384,29.176,7.088l7.432,3.816l3.496-7.592
			C230.44,44.144,261.8,24,296,24c48.52,0,88,39.48,88,88v8h8c26.472,0,48,21.528,48,48s-21.528,48-48,48H104
			C86.352,216,72,201.648,72,184z M311.36,232c-3.904,27.096-27.208,48-55.36,48c-28.152,0-51.456-20.904-55.36-48H311.36z"/>
		<path d="M466.44,413.784C474.688,406.448,480,395.88,480,384c0-19.313-13.768-35.473-32-39.191V320c0-13.232-10.768-24-24-24
			h-70.296l-16,16H424c4.408,0,8,3.592,8,8v24.809c-18.232,3.719-32,19.871-32,39.191c0,11.88,5.313,22.448,13.56,29.784
			C391.44,423.872,376,446.144,376,472v32h128v-32C504,446.144,488.56,423.872,466.44,413.784z M416,384c0-13.232,10.768-24,24-24
			s24,10.768,24,24s-10.768,24-24,24S416,397.232,416,384z M488,488h-96v-16c0-26.472,21.528-48,48-48s48,21.528,48,48V488z"/>
		<path d="M104,392c4.408,0,8,3.592,8,8h16c0-13.232-10.768-24-24-24v-16H88v16H64v24c0,13.232,10.768,24,24,24h16
			c4.408,0,8,3.592,8,8v8H88c-4.408,0-8-3.592-8-8H64c0,13.232,10.768,24,24,24v16h16v-16h24v-24c0-13.232-10.768-24-24-24H88
			c-4.408,0-8-3.592-8-8v-8H104z"/>
		<path d="M104,328.408V320c0-4.408,3.592-8,8-8h62.296l-16-16H112c-13.232,0-24,10.768-24,24v8.408C43.216,332.464,8,370.176,8,416
			c0,48.52,39.48,88,88,88s88-39.48,88-88C184,370.176,148.784,332.464,104,328.408z M96,488c-39.696,0-72-32.304-72-72
			c0-39.695,32.304-72,72-72s72,32.305,72,72C168,455.696,135.696,488,96,488z"/>
		<path d="M296,424h-32v-8v-8v-64h-16v64h-32v96h112v-64h-32V424z M248,488h-16v-64h16V488z M264,440h16v48h-16V440z M312,456v32
			h-16v-32H312z"/>
		<path d="M296,40v16c30.88,0,56,25.12,56,56c0,2.376-0.152,4.712-0.432,7.008l15.872,1.984c0.376-2.96,0.56-5.984,0.56-8.992
			C368,72.304,335.696,40,296,40z"/>
	</g>
</g>
</svg>
