<?xml version="1.0" encoding="utf-8"?>
<!-- Generator: Adobe Illustrator 16.0.0, SVG Export Plug-In . SVG Version: 6.00 Build 0)  -->
<!DOCTYPE svg PUBLIC "-//W3C//DTD SVG 1.1//EN" "http://www.w3.org/Graphics/SVG/1.1/DTD/svg11.dtd">
<svg version="1.1" id="Layer_35" xmlns="http://www.w3.org/2000/svg" xmlns:xlink="http://www.w3.org/1999/xlink" x="0px" y="0px"
	 width="512px" height="512px" viewBox="0 0 512 512" enable-background="new 0 0 512 512" xml:space="preserve">
<path fill="#ED1B4A" d="M176,192c0-13.256,10.744-24,24-24h21.096C210.216,122.208,169.072,88,120,88C62.656,88,16,134.656,16,192
	c0,23.944,8.216,45.96,21.864,63.552C42,250.952,47.944,248,54.624,248H64c13.984,0,13.984,16,27.976,16
	c13.992,0,13.992-16,27.976-16c14.016,0,14.016,16,28.024,16c14.008,0,14.016-16,28.024-16h9.376c6.68,0,12.616,2.944,16.76,7.552
	c8.912-11.52,15.488-24.936,18.96-39.552H200C186.744,216,176,205.256,176,192z"/>
<path d="M120,392c4.408,0,8,3.592,8,8h16c0-10.416-6.712-19.216-16-22.527V360h-16v16H96v24c0,13.232,10.768,24,24,24
	c4.408,0,8,3.592,8,8v8h-8c-4.408,0-8-3.592-8-8H96c0,10.416,6.712,19.216,16,22.528V472h16v-16h16v-24c0-13.232-10.768-24-24-24
	c-4.408,0-8-3.592-8-8v-8H120z"/>
<path d="M48,184h16v16H48V184z"/>
<path d="M165.144,449.304l8.744,13.4c7.256-4.736,13.456-11.16,17.92-18.576l-13.712-8.248
	C174.872,441.232,170.392,445.88,165.144,449.304L165.144,449.304z"/>
<path d="M174.016,363.328l-12.04,10.536l11.776,13.456C180.36,394.872,184,404.552,184,414.592c0,2.656-0.256,5.313-0.752,7.889
	l15.712,3.039c0.688-3.575,1.04-7.256,1.04-10.928c0-13.912-5.048-27.336-14.208-37.808L174.016,363.328z"/>
<path d="M162.912,72.4c10.576-10.576,24.64-16.4,39.592-16.4H322.8L359.4,26.72l69.472,69.472l-87.744,94.016
	C330.576,201.512,315.656,208,300.184,208H200c-8.824,0-16-7.176-16-16s7.176-16,16-16h53.496c19.232,0,37.313-7.488,50.912-21.088
	l7.6-7.6v-17.08l-66.184-22.064c-16.752-5.584-35.136-5.536-51.848,0.152l-8.584,2.92c4.672,3.792,9.024,7.952,12.976,12.488
	l0.76-0.256c13.416-4.568,28.176-4.608,41.64-0.12l54.44,18.144l-2.104,2.104c-10.576,10.576-24.64,16.4-39.6,16.4h-34.56H200
	c-17.648,0-32,14.352-32,32s14.352,32,32,32h100.184c19.881,0,39.072-8.336,52.641-22.872l98.296-105.32L360.592,5.28L317.192,40
	H202.504c-19.232,0-37.312,7.488-50.912,21.088l-27.096,27.096c6.816,0.288,13.48,1.184,19.896,2.728L162.912,72.4z"/>
<path d="M465.344,334.464c29.008-29.624,49.856-69.96,31.937-87.888l-21.624-21.056c-0.696-0.992-1.416-1.984-2.305-2.872
	c-18.144-18.144-59.544,3.672-89.287,33.416c-28.032,28.032-48.992,66.4-36.12,85.913C335.048,348.968,328,357.952,328,368v8.616
	c-28.775-25.72-64.768-42.56-81.352-25.968c-0.888,0.888-1.6,1.871-2.304,2.871l-21.696,21.129c-0.024,0.023-0.04,0.063-0.072,0.088
	c-3.392-6.801-7.616-13.217-12.704-19.024l-30.928-35.344l28.08-28.08c5.792-5.792,8.976-13.479,8.976-21.656
	C216,253.736,202.264,240,185.368,240H176c-10.632,0-16.288,6.456-20.032,10.728c-3.488,3.984-4.872,5.272-7.992,5.272
	s-4.504-1.288-7.992-5.272c-0.736-0.84-1.584-1.776-2.496-2.728H152v-32c0-17.648-14.352-32-32-32c-8.824,0-16-7.176-16-16v-16h16
	c8.824,0,16,7.176,16,16h16c0-14.864-10.24-27.288-24-30.864V120h-16v16H88v32c0,17.648,14.352,32,32,32c8.824,0,16,7.176,16,16v16
	h-16c-8.824,0-16-7.176-16-16H88c0,12.648,7.44,23.512,18.12,28.704c-2.568,1.96-4.568,4.192-6.184,6.032
	c-3.472,3.976-4.864,5.264-7.96,5.264s-4.488-1.288-7.968-5.264C80.272,246.464,74.624,240,64,240h-9.368
	C37.736,240,24,253.736,24,270.632c0,8.177,3.184,15.872,8.976,21.656l28.08,28.08l-30.928,35.344
	C15.856,372.008,8,392.92,8,414.592C8,463.888,48.112,504,97.408,504h45.176c43.424,0,79.68-31.128,87.712-72.232
	c6.952,11.152,15.896,22.297,25.76,32.16c22.176,22.176,50.84,39.952,71.583,39.952c7.072,0,13.225-2.063,17.889-6.728l5.336-5.712
	C367.984,499.688,392.384,504,416,504c42.664,0,88-14.016,88-40v-96C504,353.624,489.792,341.561,465.344,334.464z M401.96,341.104
	l12.272,12.385c-13.872,7.031-24.448,8.376-28.072,4.744l-7.232-7.752C386.192,348.768,394,345.552,401.96,341.104L401.96,341.104z
	 M428.344,345l-12.576-12.688c6.305-4.48,12.473-9.488,18.336-14.896l12.744,12.744C440.496,336.016,434.271,340.912,428.344,345z
	 M460.424,287.736l12.584,12.584c-4.088,5.936-8.983,12.168-14.848,18.527l-12.688-12.688
	C450.888,300.28,455.936,294.057,460.424,287.736L460.424,287.736z M481.488,286.176l-12.305-12.304
	c4.44-7.968,7.761-15.832,9.456-23.112l7.4,7.2C489.776,261.696,488.48,272.305,481.488,286.176z M395.376,267.376
	c24.416-24.408,48.056-35.48,60.024-35.48c3,0,5.271,0.696,6.64,2.056c6.776,6.776-2.872,36.12-33.416,66.664
	c-30.536,30.536-59.856,40.192-66.664,33.416C355.184,327.264,364.832,297.92,395.376,267.376L395.376,267.376z M360.104,353.775
	l14.545,15.576c4.584,4.584,10.647,6.616,17.64,6.616c16.904,0,39.16-11.983,58.888-28.479C475.04,352.464,488,361.568,488,368
	c0,9.784-28.048,24-72,24s-72-14.216-72-24C344,364.504,348.352,358.92,360.104,353.775z M408,455.84
	c-12.192-0.496-22.92-2.112-32-4.352v-15.696c10.112,2.232,21.04,3.6,32,4.048V455.84z M408,423.84
	c-12.192-0.496-22.92-2.111-32-4.352v-15.696c10.112,2.232,21.04,3.6,32,4.048V423.84z M360,414.208c-10.271-4.504-16-9.8-16-14.208
	v-8.336c4.592,2.896,10.024,5.4,16,7.544V414.208z M344,423.664c4.592,2.896,10.024,5.4,16,7.544v15c-10.271-4.504-16-9.8-16-14.208
	V423.664z M344,464v-8.336c4.592,2.896,10.024,5.4,16,7.544v15C349.729,473.704,344,468.408,344,464z M376,467.792
	c10.112,2.232,21.04,3.6,32,4.048v16c-12.192-0.496-22.92-2.112-32-4.352V467.792z M424,471.84c10.96-0.448,21.888-1.815,32-4.048
	v15.696c-9.08,2.239-19.808,3.855-32,4.352V471.84z M424,455.84v-16c10.96-0.448,21.888-1.815,32-4.048v15.696
	C446.92,453.728,436.192,455.344,424,455.84z M424,423.84v-16c10.96-0.448,21.888-1.815,32-4.048v15.696
	C446.92,421.729,436.192,423.344,424,423.84z M257.96,361.96c6.761-6.784,36.112,2.872,66.664,33.416
	c1.168,1.168,2.256,2.36,3.376,3.536v57.616c-11.864-6.265-24.695-15.992-36.624-27.912
	C260.832,398.08,251.184,368.736,257.96,361.96z M285.848,445.464c5.984,5.536,12.145,10.521,18.305,14.928l-12.488,12.601
	c-5.936-4.08-12.16-8.977-18.512-14.832L285.848,445.464z M233.888,386.032l7.472-7.272c1.704,7.28,5.016,15.145,9.456,23.112
	l-12.312,12.312C231.504,400.32,230.192,389.729,233.888,386.032z M40,270.632C40,262.561,46.56,256,54.632,256H64
	c3.096,0,4.488,1.288,7.96,5.264C75.696,265.536,81.344,272,91.976,272c10.624,0,16.272-6.464,20.008-10.736
	c3.48-3.976,4.864-5.264,7.968-5.264c3.12,0,4.504,1.288,7.992,5.271c3.744,4.272,9.4,10.729,20.032,10.729
	s16.288-6.456,20.032-10.729C171.496,257.288,172.88,256,176,256h9.368c8.072,0,14.632,6.561,14.632,14.632
	c0,3.904-1.52,7.576-4.288,10.345L164.688,312H75.312l-31.024-31.023C41.52,278.208,40,274.536,40,270.632z M142.592,488H97.416
	C56.936,488,24,455.064,24,414.592c0-17.792,6.448-34.96,18.168-48.336L75.632,328h88.744l33.464,38.248
	C209.552,379.632,216,396.8,216,414.592C216,455.064,183.064,488,142.592,488L142.592,488z M246.992,428.32l12.584-12.584
	c4.488,6.319,9.536,12.544,14.951,18.424l-12.688,12.688C255.976,440.488,251.08,434.256,246.992,428.32L246.992,428.32z
	 M334.04,486.04c-3.736,3.736-14.36,2.44-28.248-4.568l12.16-12.271c4.616,2.584,9.136,4.744,13.512,6.432
	c1.496,2.464,3.448,4.776,5.816,6.928L334.04,486.04z M472,478.208v-15c5.977-2.144,11.408-4.648,16-7.544V464
	C488,468.408,482.272,473.704,472,478.208z M472,446.208v-15c5.977-2.144,11.408-4.648,16-7.544V432
	C488,436.408,482.272,441.704,472,446.208z M472,414.208v-15c5.977-2.144,11.408-4.647,16-7.544V400
	C488,404.408,482.272,409.704,472,414.208z"/>
</svg>
