<?xml version="1.0" encoding="utf-8"?>
<!-- Generator: Adobe Illustrator 16.0.0, SVG Export Plug-In . SVG Version: 6.00 Build 0)  -->
<!DOCTYPE svg PUBLIC "-//W3C//DTD SVG 1.1//EN" "http://www.w3.org/Graphics/SVG/1.1/DTD/svg11.dtd">
<svg version="1.1" id="Layer_5" xmlns="http://www.w3.org/2000/svg" xmlns:xlink="http://www.w3.org/1999/xlink" x="0px" y="0px"
	 width="512px" height="512px" viewBox="0 0 512 512" enable-background="new 0 0 512 512" xml:space="preserve">
<g>
	<g>
		<path fill="#ED1B4A" d="M376.462,211.028c-4.028-15.298-10.114-29.958-18.141-43.708l12.054-24.118l-51.558-51.567l-24.128,12.063
			c-13.75-8.036-28.41-14.112-43.708-18.149L242.465,60h-72.92l-8.517,25.539c-15.298,4.027-29.958,10.113-43.708,18.14
			L93.202,91.625l-51.567,51.568l12.054,24.118c-8.026,13.75-14.112,28.41-18.14,43.708L10,219.534v72.922l25.539,8.517
			c4.027,15.299,10.113,29.959,18.139,43.709l-12.054,24.116l51.568,51.567l24.118-12.055c13.75,8.027,28.41,14.111,43.708,18.142
			L169.534,452h72.922l8.516-25.538c15.299-4.028,29.959-10.114,43.708-18.149l24.128,12.063l51.559-51.566l-12.054-24.117
			c8.025-13.75,14.111-28.412,18.141-43.709L402,292.465v-72.92L376.462,211.028z M206,383.4c-70.364,0-127.4-57.037-127.4-127.4
			c0-70.364,57.036-127.4,127.4-127.4S333.4,185.636,333.4,256C333.4,326.363,276.364,383.4,206,383.4z"/>
	</g>
	<g>
		<path d="M440,136c35.288,0,64-28.712,64-64S475.288,8,440,8s-64,28.712-64,64S404.712,136,440,136z M440,24
			c26.472,0,48,21.528,48,48s-21.528,48-48,48s-48-21.528-48-48S413.528,24,440,24z"/>
		<path d="M477.656,53.656l-11.313-11.313L424,84.688l-10.344-10.344l-11.313,11.313L424,107.312L477.656,53.656z"/>
		<path d="M206,226.6c-4.527,0-8.761,1.107-12.593,2.95l-29.479-29.479l-13.857,13.857l29.479,29.479
			c-1.843,3.832-2.95,8.066-2.95,12.593c0,12.76,8.222,23.539,19.6,27.596V305h19.6v-21.404c11.378-4.057,19.6-14.836,19.6-27.596
			C235.4,239.791,222.21,226.6,206,226.6z M206,265.8c-5.4,0-9.8-4.399-9.8-9.8c0-5.4,4.4-9.8,9.8-9.8s9.8,4.4,9.8,9.8
			C215.8,261.4,211.4,265.8,206,265.8z"/>
		<path d="M206,118.8c-75.656,0-137.2,61.544-137.2,137.2c0,75.655,61.544,137.2,137.2,137.2c75.655,0,137.2-61.545,137.2-137.2
			C343.2,180.344,281.655,118.8,206,118.8z M323.1,265.8c-2.087,25.068-12.014,47.902-27.39,66.062l-13.485-13.483l-13.856,13.856
			l13.483,13.484c-18.148,15.376-40.993,25.305-66.062,27.391V354h-19.6v19.1c-25.069-2.086-47.902-12.014-66.062-27.39
			l13.484-13.485l-13.857-13.856l-13.485,13.483c-15.375-18.148-25.304-40.992-27.391-66.062H108v-19.6H88.9
			c2.087-25.069,12.015-47.902,27.391-66.062l13.484,13.485l13.857-13.857l-13.485-13.485c18.15-15.375,40.993-25.303,66.062-27.391
			V158h19.6v-19.1c25.068,2.088,47.901,12.015,66.062,27.391l-13.484,13.484l13.857,13.857l13.484-13.485
			c15.375,18.15,25.305,40.994,27.392,66.062H304v19.6h19.1V265.8z"/>
		<path d="M432,184h16v16h-16V184z"/>
		<path d="M432,152h16v16h-16V152z"/>
		<path d="M448,216h-16v184h-45.6l53.6,96.472L493.6,400H448V216z M440,463.528L413.6,416H466.4L440,463.528z"/>
	</g>
</g>
</svg>
