<?xml version="1.0" encoding="utf-8"?>
<!-- Generator: Adobe Illustrator 16.0.0, SVG Export Plug-In . SVG Version: 6.00 Build 0)  -->
<!DOCTYPE svg PUBLIC "-//W3C//DTD SVG 1.1//EN" "http://www.w3.org/Graphics/SVG/1.1/DTD/svg11.dtd">
<svg version="1.1" id="_x33_0" xmlns="http://www.w3.org/2000/svg" xmlns:xlink="http://www.w3.org/1999/xlink" x="0px" y="0px"
	 width="512px" height="512px" viewBox="0 0 512 512" enable-background="new 0 0 512 512" xml:space="preserve">
<g>
	<g>
		<path fill="#ED1B4A" d="M329.16,95.176L276.536,76.04c-7.392-2.68-15.112-4.04-22.96-4.04c-21.032,0-41.12,10.04-53.728,26.864
			l-4.064,5.408C180.136,106.336,168,119.784,168,136c0,17.256,8.136,39.832,8.488,40.792l1.832,5.072
			C182.152,173.696,190.384,168,200,168h9.552v0.128c3.16-13,11.064-24.536,22.448-32.128c0,0,48,32,88,32h8
			c10.296,0,19.008,6.52,22.416,15.632l-0.28-1.496l8.464-31.552c0.929-3.712,1.4-7.536,1.4-11.368
			C360,119.584,347.6,101.888,329.16,95.176z"/>
	</g>
	<g>
		<g>
			<path fill="#ED1B4A" d="M256,504C119.248,504,8,392.744,8,256S119.248,8,256,8s248,111.256,248,248S392.752,504,256,504z M256,48
				C141.312,48,48,141.304,48,256c0,114.695,93.312,208,208,208c114.688,0,208-93.305,208-208C464,141.304,370.688,48,256,48z"/>
		</g>
	</g>
	<g>
		<path d="M256,40C136.896,40,40,136.896,40,256c0,119.104,96.896,216,216,216c119.104,0,216-96.896,216-216
			C472,136.896,375.104,40,256,40z M248,455.8c-21.384-0.848-41.928-5.032-61.088-12.104l6.144-14.824
			c17.272,6.312,35.72,10.136,54.944,10.968V455.8z M172.152,437.512c-19.04-8.832-36.48-20.552-51.72-34.632l11.328-11.328
			c13.752,12.616,29.408,23.192,46.512,31.192L172.152,437.512z M109.12,391.561c-14.08-15.24-25.8-32.672-34.632-51.721
			l14.752-6.111c8,17.096,18.6,32.744,31.216,46.496L109.12,391.561z M68.312,325.088C61.232,305.928,57.048,285.384,56.2,264
			h15.992c0.824,19.225,4.616,37.68,10.928,54.952L68.312,325.088z M72.368,248H56.2c0.848-21.384,5.032-41.928,12.104-61.088
			l14.84,6.144C76.8,210.528,73.184,229,72.368,248z M89.288,178.288l-14.8-6.128c8.832-19.04,20.552-36.48,34.632-51.72
			l11.232,11.232C107.48,145.688,97.152,161.44,89.288,178.288z M435.544,344H392v-0.008c0-27.04-19.313-50.176-45.92-55.016
			l-43.568-7.929l-4.703-18.808c13.72-8.584,23.936-22.184,28.088-38.248H328c17.648,0,32-14.352,32-32c0-17.648-14.352-32-32-32h-8
			c-37.064,0-83.104-30.352-83.56-30.664l-4.448-2.952l-4.432,2.96c-11.24,7.504-19.464,18.32-23.88,30.664H200
			c-17.648,0-32,14.352-32,32s14.352,32,32,32h2.104c4.16,16.056,14.376,29.664,28.088,38.248l-4.704,18.809l-43.568,7.928
			C155.312,293.816,136,316.952,136,344v16h16v-16.008c0-19.305,13.792-35.824,32.784-39.271l20.744-3.777l23.608,47.209L264,322
			l34.864,26.152l23.607-47.209l20.744,3.777C362.208,308.168,376,324.688,376,344h-48v16h98.768c-3.367,5.512-7,10.855-10.871,16
			H280v16h122.464c-34.855,37.504-83.872,61.632-138.464,63.8V424h-8c-92.632,0-168-75.359-168-168
			c0-44.872,17.48-87.056,49.2-118.792l5.656-5.656l-22.424-22.424C156.104,76.176,203.728,56,256,56
			c99.393,0,182.04,72.88,197.408,168H360v48h16v-32h16v64h16v-64h16v32h16v-32h15.304c0.416,5.288,0.696,10.608,0.696,16
			C456,287.561,448.624,317.424,435.544,344L435.544,344z M264,256c-26.472,0-48-21.528-48-48v-27.16
			c0-13.672,6.04-26.472,16.376-35.144c12.504,7.64,46.992,27.024,79.624,29.928V208C312,234.472,290.473,256,264,256z M230,296.496
			L250.664,312l-15.8,11.848l-12.944-25.88L230,296.496z M241.048,284.792l3.92-15.68C250.984,270.984,257.376,272,264,272
			s13.016-1.016,19.032-2.888l3.92,15.68L264,302L241.048,284.792z M298,296.496l8.072,1.464l-12.944,25.88L277.336,312L298,296.496
			z M328,176c8.824,0,16,7.176,16,16s-7.176,16-16,16V176z M200,180.84V208c-8.824,0-16-7.176-16-16s7.176-16,16-16h0.296
			C200.176,177.608,200,179.208,200,180.84z"/>
		<path d="M280,408h16v16h-16V408z"/>
		<path d="M312,408h16v16h-16V408z"/>
	</g>
</g>
</svg>
