<?xml version="1.0" encoding="utf-8"?>
<!-- Generator: Adobe Illustrator 16.0.0, SVG Export Plug-In . SVG Version: 6.00 Build 0)  -->
<!DOCTYPE svg PUBLIC "-//W3C//DTD SVG 1.1//EN" "http://www.w3.org/Graphics/SVG/1.1/DTD/svg11.dtd">
<svg version="1.1" id="Layer_1_1_" xmlns="http://www.w3.org/2000/svg" xmlns:xlink="http://www.w3.org/1999/xlink" x="0px" y="0px"
	 width="512px" height="512px" viewBox="0 0 512 512" enable-background="new 0 0 512 512" xml:space="preserve">
<g>
	<g>
		<circle fill="#ED1B4A" cx="192" cy="360" r="48"/>
	</g>
	<g>
		<g>
			<path fill="#ED1B4A" d="M328,168h-48V40h48V168z"/>
		</g>
	</g>
	<g>
		<g>
			<path fill="#ED1B4A" d="M264,168h-48V72h48V168z"/>
		</g>
	</g>
	<g>
		<g>
			<path fill="#ED1B4A" d="M200,168h-48v-64h48V168z"/>
		</g>
	</g>
	<g>
		<path d="M8,76.688V392h110.728c6.864,15.648,18.6,28.656,33.272,37.176v71.769l40-20l40,20v-71.769
			c14.672-8.52,26.408-21.527,33.271-37.176H360V8H76.688L8,76.688z M72,35.312V72H35.312L72,35.312z M216,475.056l-24-12l-24,12
			v-38.743c7.584,2.384,15.64,3.688,24,3.688s16.416-1.304,24-3.688V475.056z M192,424c-35.288,0-64-28.712-64-64s28.712-64,64-64
			s64,28.712,64,64S227.288,424,192,424z M344,376h-73.616c1.056-5.168,1.616-10.52,1.616-16c0-44.111-35.888-80-80-80
			s-80,35.889-80,80c0,5.48,0.56,10.832,1.616,16H24V88h64V24h256V376z"/>
		<rect x="40" y="184" width="16" height="16"/>
		<rect x="72" y="184" width="128" height="16"/>
		<rect x="40" y="216" width="16" height="16"/>
		<rect x="72" y="216" width="128" height="16"/>
		<rect x="40" y="248" width="16" height="16"/>
		<rect x="72" y="248" width="128" height="16"/>
		<polygon points="432,126.952 502.424,80 432,33.048 432,56 408,56 408,72 448,72 448,62.952 473.576,80 448,97.048 448,88 376,88 
			376,104 432,104 		"/>
		<rect x="376" y="56" width="16" height="16"/>
		<polygon points="432,176 376,176 376,192 448,192 448,182.952 473.576,200 448,217.048 448,208 376,208 376,224 432,224 
			432,246.952 502.424,200 432,153.048 		"/>
		<polygon points="432,296 376,296 376,312 448,312 448,302.943 473.576,320 448,337.057 448,328 408,328 408,344 432,344 
			432,366.943 502.424,320 432,273.057 		"/>
		<rect x="376" y="328" width="16" height="16"/>
	</g>
</g>
<path d="M197.575,345.205c2.772,0,5.031,2.259,5.031,5.03h10.061c0-8.32-6.771-15.091-15.091-15.091v-10.061h-10.061v10.061h-15.092
	v15.091c0,8.32,6.771,15.092,15.092,15.092h10.061c2.772,0,5.031,2.258,5.031,5.03v5.03h-15.091c-2.772,0-5.031-2.258-5.031-5.03
	h-10.061c0,8.32,6.771,15.091,15.092,15.091v10.062h10.061v-10.062h15.091v-15.091c0-8.321-6.771-15.092-15.091-15.092h-10.061
	c-2.772,0-5.031-2.259-5.031-5.03v-5.03H197.575z"/>
</svg>
