<?xml version="1.0" encoding="utf-8"?>
<!-- Generator: Adobe Illustrator 16.0.0, SVG Export Plug-In . SVG Version: 6.00 Build 0)  -->
<!DOCTYPE svg PUBLIC "-//W3C//DTD SVG 1.1//EN" "http://www.w3.org/Graphics/SVG/1.1/DTD/svg11.dtd">
<svg version="1.1" id="Layer_1_1_" xmlns="http://www.w3.org/2000/svg" xmlns:xlink="http://www.w3.org/1999/xlink" x="0px" y="0px"
	 width="512px" height="512px" viewBox="0 0 512 512" enable-background="new 0 0 512 512" xml:space="preserve">
<g>
	<g>
		<path d="M344,193.472V8H84.368L24,76.992v84.48C14.712,164.784,8,173.584,8,184v224c0,13.232,10.768,24,24,24h207.976v-16H32
			c-4.408,0-8-3.584-8-8V240h288v-16H24v-40c0-4.416,3.592-8,8-8h123.16c1.584,0,3.12,0.472,4.44,1.344L205.576,208H336
			c4.408,0,8,3.584,8,8v8h16v-8C360,205.584,353.288,196.784,344,193.472z M80,37.288V72H49.632L80,37.288z M168.464,164.032
			c-3.96-2.64-8.56-4.032-13.304-4.032H40V88h56V24h232v168H210.424L168.464,164.032z"/>
		<rect x="40" y="192" width="120" height="16"/>
		<rect x="112" y="40" width="200" height="16"/>
		<rect x="112" y="72" width="200" height="16"/>
		<rect x="56" y="104" width="224" height="16"/>
	</g>
	<g>
		<g>
			<path fill="#ED1B4A" d="M360,504c-79.4,0-144-64.6-144-144s64.6-144,144-144s144,64.6,144,144S439.4,504,360,504z"/>
		</g>
	</g>
	<g>
		<path d="M360,392c-17.648,0-32-14.352-32-32s14.352-32,32-32s32,14.352,32,32S377.648,392,360,392z M360,344
			c-8.824,0-16,7.176-16,16s7.176,16,16,16s16-7.176,16-16S368.824,344,360,344z"/>
	</g>
	<g>
		<path d="M360,424c-35.288,0-64-28.712-64-64s28.712-64,64-64s64,28.712,64,64S395.288,424,360,424z M360,312
			c-26.472,0-48,21.527-48,48s21.528,48,48,48s48-21.527,48-48S386.472,312,360,312z"/>
	</g>
	<g>
		<path d="M264,360h-16c0-61.76,50.24-112,112-112v16C307.064,264,264,307.064,264,360z"/>
	</g>
	<g>
		<polygon points="440,221.336 376,136 416,136 416,32 432,32 432,152 408,152 440,194.664 472,152 448,152 448,64 464,64 464,136 
			504,136 		"/>
	</g>
	<g>
		<rect x="296" y="104" width="16" height="16"/>
	</g>
	<g>
		<rect x="448" y="32" width="16" height="16"/>
	</g>
</g>
</svg>
